<?xml version="1.0" standalone="no"?>
<!DOCTYPE svg PUBLIC "-//W3C//DTD SVG 20010904//EN"
 "http://www.w3.org/TR/2001/REC-SVG-20010904/DTD/svg10.dtd">
<svg version="1.0" xmlns="http://www.w3.org/2000/svg"
 width="500.000000pt" height="100.000000pt" viewBox="0 0 500.000000 100.000000"
 preserveAspectRatio="xMidYMid meet">

<g transform="translate(0.000000,100.000000) scale(0.100000,-0.100000)"
fill="#000000" stroke="none">
<path d="M229 943 c-15 -2 -51 -18 -80 -36 -126 -75 -161 -246 -75 -360 27
-35 107 -94 150 -110 7 -3 2 -20 -12 -47 l-24 -42 24 -46 c13 -25 29 -47 35
-49 7 -3 22 15 34 39 12 24 37 67 55 96 33 50 35 52 79 52 25 0 45 -4 45 -8 0
-4 -36 -71 -79 -147 l-79 -140 26 -47 c15 -27 29 -48 32 -48 6 0 16 15 192
315 149 252 188 320 188 329 0 3 -26 6 -58 6 l-58 0 -62 -103 c-33 -57 -68
-109 -76 -116 -10 -9 -27 -10 -55 -4 l-39 8 54 95 c30 52 54 98 54 102 0 20
-218 23 -238 3 -11 -11 22 -25 62 -25 31 0 37 -3 32 -17 -10 -24 -97 -162
-107 -168 -19 -12 -111 62 -135 107 -33 63 -6 174 53 216 42 30 68 35 198 41
l119 6 23 34 c13 19 23 42 23 52 0 18 -10 19 -137 18 -76 -1 -150 -4 -164 -6z"/>
<path d="M1017 724 c-59 -18 -129 -85 -147 -139 -33 -100 15 -218 109 -267 45
-24 65 -28 132 -28 95 0 132 14 193 70 46 43 75 103 63 134 -9 22 -233 23
-263 2 -10 -8 -16 -18 -12 -22 4 -4 53 -9 108 -12 55 -3 102 -8 105 -12 7 -12
-54 -77 -89 -94 -51 -24 -151 -21 -206 7 -61 30 -93 91 -87 165 5 64 28 98 88
129 68 34 152 32 231 -8 68 -34 93 -29 64 15 -41 63 -186 93 -289 60z"/>
<path d="M3562 513 c3 -200 4 -208 23 -208 18 0 20 8 25 90 l5 90 173 3 172 2
0 -100 c0 -55 3 -100 8 -100 30 1 33 21 39 218 l6 202 -26 0 c-27 0 -27 0 -27
-80 l0 -80 -172 2 -173 3 -3 83 c-3 80 -3 82 -28 82 l-24 0 2 -207z"/>
<path d="M1467 655 c-10 -25 -8 -328 2 -344 19 -30 38 -3 46 63 l7 66 71 -1
c40 0 80 -3 89 -7 9 -4 38 -34 63 -67 53 -68 63 -75 87 -66 16 5 13 14 -22 71
-22 36 -40 68 -40 71 0 3 15 14 34 24 19 11 37 28 40 39 17 63 -7 130 -52 148
-15 6 -93 13 -173 16 -131 4 -147 3 -152 -13z m301 -61 c28 -18 29 -57 2 -84
-17 -17 -33 -20 -119 -20 -55 0 -106 3 -115 6 -12 5 -16 20 -16 58 0 29 2 55
5 58 11 11 221 -5 243 -18z"/>
<path d="M2078 653 c-19 -21 -175 -311 -180 -333 -2 -10 5 -15 22 -15 18 0 32
11 49 38 l25 38 115 -3 116 -3 20 -37 c16 -30 26 -38 49 -38 25 0 27 3 22 25
-7 26 -121 244 -162 308 -26 40 -52 47 -76 20z m59 -106 c12 -17 29 -49 38
-69 14 -36 14 -38 -3 -38 -11 0 -47 -3 -81 -6 -48 -6 -61 -4 -61 7 0 22 63
139 75 139 5 0 20 -15 32 -33z"/>
<path d="M2387 663 c-4 -3 -7 -84 -7 -180 l0 -173 25 0 25 0 0 143 0 142 58
-60 c31 -33 94 -100 139 -148 75 -80 85 -88 115 -85 l33 3 3 178 2 177 -30 0
-30 0 0 -140 c0 -77 -4 -140 -9 -140 -5 0 -71 65 -146 145 -125 132 -159 158
-178 138z"/>
<path d="M2892 662 c-9 -7 -12 -50 -10 -183 l3 -174 145 -2 c134 -3 148 -1
184 20 58 32 81 78 81 157 -1 146 -72 190 -305 190 -47 0 -91 -4 -98 -8z m284
-73 c32 -15 46 -29 55 -56 26 -81 -15 -162 -93 -184 -21 -5 -73 -9 -116 -7
l-77 3 -3 133 -3 132 98 0 c77 0 105 -4 139 -21z"/>
<path d="M4682 662 c-9 -7 -12 -51 -10 -188 l3 -179 152 -3 c144 -2 152 -2
158 18 3 11 3 24 0 30 -4 6 -59 10 -136 10 l-129 0 0 144 c0 171 -4 189 -38
168z"/>
<path d="M4120 486 c0 -100 4 -177 10 -181 5 -3 21 -3 35 1 l25 6 0 174 0 174
-35 0 -35 0 0 -174z"/>
<path d="M4290 486 c0 -129 3 -177 13 -183 6 -4 81 -9 165 -11 l152 -4 0 26 0
26 -117 0 c-65 0 -123 4 -130 8 -9 5 -13 53 -15 157 l-3 150 -32 3 -33 3 0
-175z"/>
</g>
</svg>
