<svg version="1.1" xmlns="http://www.w3.org/2000/svg" xmlns:xlink="http://www.w3.org/1999/xlink" width="512.000000pt" height="512.000000pt" viewBox="0,0,256,256"><g fill="#d6ab68" fill-rule="nonzero" stroke="none" stroke-width="1" stroke-linecap="butt" stroke-linejoin="miter" stroke-miterlimit="10" stroke-dasharray="" stroke-dashoffset="0" font-family="none" font-weight="none" font-size="none" text-anchor="none" style="mix-blend-mode: normal"><g transform="translate(0.08948,0.02425) scale(0.5,0.5)"><g transform="translate(0,512) scale(0.1,-0.1)"><path d="M2029,5097c-44,-23 -44,-23 -340,-605c-162,-320 -297,-584 -300,-586c-2,-3 -259,-37 -569,-76c-311,-39 -589,-76 -618,-81c-115,-22 -175,-133 -126,-232c9,-18 230,-246 491,-508l474,-475l-130,-559c-72,-307 -131,-576 -131,-597c0,-55 22,-101 65,-134c32,-24 47,-29 94,-28c53,1 84,16 611,289l555,289l132,-69c72,-38 134,-67 136,-65c3,3 14,37 25,75c11,39 29,93 41,122l20,52l-165,87c-91,47 -173,88 -182,90c-9,2 -242,-112 -517,-255c-275,-143 -501,-258 -502,-257c-1,1 52,231 118,511c65,281 119,517 119,525c0,8 -198,213 -440,455c-241,241 -437,441 -434,444c3,3 254,37 557,76l552,70l268,534l269,534l185,-364c102,-200 224,-441 270,-534l85,-170l547,-69c300,-38 552,-72 558,-75c8,-4 -157,-176 -431,-450l-443,-443l15,-66c8,-37 18,-71 22,-76c5,-4 28,6 53,23c58,40 230,125 285,142c37,11 98,68 459,433c256,260 421,434 430,456c32,75 -6,169 -84,203c-25,11 -243,43 -632,92c-327,42 -598,78 -603,81c-5,3 -136,261 -292,572c-178,355 -295,577 -312,594c-57,53 -116,61 -185,25z"></path><path d="M3680,2525c-8,-2 -49,-9 -90,-15c-523,-85 -932,-492 -1036,-1031c-22,-113 -22,-328 -1,-439c73,-377 311,-705 642,-886c490,-266 1095,-177 1491,220c182,183 293,386 350,641c24,109 29,331 10,447c-85,521 -477,929 -1001,1043c-64,14 -330,29 -365,20zM3996,2241c346,-71 631,-323 745,-656c37,-111 51,-196 50,-325c-1,-458 -308,-846 -766,-966c-98,-26 -362,-26 -455,-1c-209,57 -363,147 -496,289c-119,127 -196,268 -242,438c-34,128 -36,342 -5,465c92,357 322,609 659,724c50,17 115,35 145,40c97,16 267,12 365,-8z"></path><path d="M3439,2018c-5,-12 -105,-814 -102,-818c2,-2 59,-6 127,-8l124,-4l40,40c30,30 53,43 95,52c169,38 280,-65 280,-260c0,-82 -15,-136 -52,-187c-39,-54 -90,-77 -171,-78c-102,0 -165,50 -193,153l-11,42h-143c-165,0 -157,7 -128,-105c41,-155 156,-266 322,-311c70,-18 239,-20 308,-3c135,32 240,117 306,244c50,95 64,161 63,285c-3,211 -80,338 -255,420c-121,56 -283,57 -391,1l-58,-30l1,27c0,15 10,86 22,157l23,130l302,3l302,2v125v125h-405c-223,0 -405,-1 -406,-2z"></path></g></g></g></svg>